<?xml version="1.0" encoding="UTF-8"?>
<svg width="212px" height="96px" viewBox="0 0 212 96" version="1.1" xmlns="http://www.w3.org/2000/svg" xmlns:xlink="http://www.w3.org/1999/xlink">
    <!-- Generator: Sketch 62 (91390) - https://sketch.com -->
    <title>Group 276</title>
    <desc>Created with Sketch.</desc>
    <g id="Page-1" stroke="none" stroke-width="1" fill="none" fill-rule="evenodd">
        <g id="Artboard" transform="translate(-177.000000, -188.000000)" fill-rule="nonzero">
            <g id="Group-276" transform="translate(177.000000, 184.000000)">
                <path d="M180.188,22.4775 L163.358,32.1932 L163.358,51.6246 L180.188,61.3402 L197.015,51.6246 L197.015,32.1932 L180.188,22.4775 Z M194.705,39.9658 L192.756,41.9143 L194.705,43.8628 L194.705,50.3237 L189.734,53.1953 L187.078,52.4828 L186.365,55.1384 L180.128,58.7386 L173.894,55.1384 L173.182,52.4828 L170.526,53.1953 L165.555,50.3237 L165.555,43.8682 L167.509,41.9143 L165.555,39.9604 L165.555,33.494 L170.499,30.6387 L170.496,30.6549 L173.168,31.3701 L173.883,28.6983 L173.867,28.6929 L180.128,25.0792 L186.379,28.6875 L186.341,28.6983 L187.056,31.3701 L189.728,30.6549 L189.717,30.6171 L194.699,33.494 L194.699,39.9658 L194.705,39.9658 Z" id="Shape" fill="#000000"></path>
                <path d="M184.897,38.4949 L183.597,38.4949 L183.597,37.1941 L180.161,33.7585 L176.725,37.1941 L176.725,38.4949 L175.425,38.4949 L171.992,41.9305 L175.425,45.3634 L176.725,45.3634 L176.725,46.6642 L180.161,50.0998 L183.597,46.6642 L183.597,45.3634 L184.897,45.3634 L188.333,41.9278 L184.897,38.4949 Z M179.702,42.589 C179.702,42.9399 179.621,43.2529 179.459,43.5309 C179.297,43.8089 179.073,44.0275 178.787,44.1867 C178.501,44.3459 178.177,44.4242 177.816,44.4242 C177.462,44.4242 177.141,44.3567 176.855,44.2218 C176.569,44.0868 176.348,43.9006 176.186,43.6658 C176.024,43.431 175.943,43.1639 175.943,42.8697 C175.943,42.6727 176.026,42.535 176.191,42.4568 C176.356,42.3785 176.59,42.338 176.887,42.338 C176.874,42.4217 176.866,42.5296 176.866,42.6592 C176.866,42.9614 176.947,43.1962 177.109,43.3609 C177.271,43.5255 177.505,43.6065 177.813,43.6065 C178.115,43.6065 178.35,43.5174 178.515,43.3447 C178.679,43.1693 178.76,42.9183 178.76,42.5917 L178.76,40.2734 L178.053,40.2734 C177.835,40.2734 177.67,40.206 177.562,40.0737 C177.454,39.9415 177.4,39.7364 177.4,39.4611 L179.243,39.4611 C179.37,39.4611 179.475,39.5016 179.565,39.5826 C179.654,39.6635 179.697,39.7661 179.697,39.8875 L179.697,42.589 L179.702,42.589 Z M184.134,43.763 C183.972,43.9762 183.742,44.1381 183.445,44.2542 C183.149,44.3675 182.803,44.4242 182.406,44.4242 C181.985,44.4242 181.618,44.3729 181.305,44.2704 C180.992,44.1678 180.752,44.0221 180.587,43.8332 C180.423,43.6442 180.339,43.4229 180.339,43.172 C180.339,42.7887 180.598,42.5971 181.116,42.5971 C181.135,42.9534 181.254,43.2205 181.478,43.4041 C181.699,43.5849 182.012,43.6766 182.414,43.6766 C182.746,43.6766 183.003,43.62 183.186,43.5066 C183.367,43.3933 183.459,43.2313 183.459,43.0262 C183.459,42.8913 183.424,42.7806 183.354,42.6943 C183.283,42.6079 183.165,42.5296 182.997,42.4622 C182.83,42.3947 182.584,42.3272 182.261,42.2571 C181.802,42.1491 181.443,42.0304 181.178,41.9008 C180.914,41.7713 180.725,41.612 180.606,41.4285 C180.49,41.245 180.431,41.0129 180.431,40.7376 C180.431,40.4705 180.509,40.2384 180.666,40.0359 C180.822,39.8362 181.043,39.6797 181.332,39.5664 C181.618,39.453 181.95,39.399 182.323,39.399 C182.682,39.399 183.003,39.4476 183.286,39.5421 C183.57,39.6365 183.791,39.7715 183.953,39.9442 C184.115,40.1169 184.196,40.3166 184.196,40.5406 C184.196,40.8861 183.945,41.0669 183.445,41.0804 C183.418,40.7592 183.316,40.5217 183.138,40.3733 C182.96,40.2249 182.69,40.1493 182.325,40.1493 C182.012,40.1493 181.772,40.2006 181.602,40.3031 C181.435,40.4057 181.351,40.5514 181.351,40.7376 C181.351,40.8699 181.384,40.9778 181.448,41.0642 C181.513,41.1506 181.624,41.2261 181.778,41.2882 C181.931,41.3503 182.15,41.415 182.436,41.4798 C182.916,41.5878 183.297,41.7065 183.578,41.8414 C183.858,41.9737 184.061,42.1356 184.188,42.3245 C184.314,42.5134 184.376,42.7455 184.376,43.0208 C184.376,43.3015 184.296,43.5498 184.134,43.763 Z" id="Shape" fill="#000000"></path>
                <polygon id="Path" fill="#000000" points="173.511 35.2995 172.232 35.2995 171.989 35.0566 171.746 35.2995 170.467 35.2995 170.467 34.0203 170.71 33.7774 170.467 33.5345 170.467 32.2552 171.746 32.2552 171.989 32.4981 172.232 32.2552 173.511 32.2552 173.511 33.5345 173.268 33.7774 173.511 34.0203"></polygon>
                <polygon id="Path" fill="#000000" points="189.815 35.2995 188.535 35.2995 188.292 35.0566 188.049 35.2995 186.77 35.2995 186.77 34.0203 187.013 33.7774 186.77 33.5345 186.77 32.2552 188.049 32.2552 188.292 32.4981 188.535 32.2552 189.815 32.2552 189.815 33.5345 189.572 33.7774 189.815 34.0203"></polygon>
                <polygon id="Path" fill="#000000" points="189.815 51.603 188.535 51.603 188.292 51.3601 188.049 51.603 186.77 51.603 186.77 50.3237 187.013 50.0808 186.77 49.8379 186.77 48.5587 188.049 48.5587 188.292 48.8016 188.535 48.5587 189.815 48.5587 189.815 49.8379 189.572 50.0808 189.815 50.3237"></polygon>
                <polygon id="Path" fill="#000000" points="173.511 51.603 172.232 51.603 171.989 51.3601 171.746 51.603 170.467 51.603 170.467 50.3237 170.71 50.0808 170.467 49.8379 170.467 48.5587 171.746 48.5587 171.989 48.8016 172.232 48.5587 173.511 48.5587 173.511 49.8379 173.268 50.0808 173.511 50.3237"></polygon>
                <path d="M180.15,54.3828 L174.725,48.9609 L174.725,47.3524 L173.117,47.3524 L167.695,41.9305 L173.117,36.5086 L174.725,36.5086 L174.725,34.9002 L180.147,29.4783 L185.569,34.9002 L185.569,36.5086 L187.178,36.5086 L192.6,41.9305 L187.18,47.3524 L185.572,47.3524 L185.572,48.9609 L180.15,54.3828 Z M175.651,48.5777 L180.15,53.0766 L184.649,48.5777 L184.649,46.4267 L186.8,46.4267 L191.299,41.9278 L186.797,37.4289 L184.646,37.4289 L184.646,35.278 L180.15,30.7818 L175.651,35.2807 L175.651,37.4316 L173.5,37.4316 L169.001,41.9305 L173.5,46.4294 L175.651,46.4294 L175.651,48.5777 Z" id="Shape" fill="#000000"></path>
                <path d="M152.83,74.108 C152.118,74.108 151.482,73.972 150.922,73.7 C150.37,73.428 149.938,73.048 149.626,72.56 C149.314,72.072 149.158,71.516 149.158,70.892 L149.158,68.684 C149.158,68.06 149.31,67.508 149.614,67.028 C149.926,66.54 150.354,66.164 150.898,65.9 C151.442,65.628 152.066,65.492 152.77,65.492 C153.474,65.492 154.098,65.6 154.642,65.816 C155.194,66.024 155.622,66.316 155.926,66.692 C156.23,67.068 156.382,67.5 156.382,67.988 C156.382,68.284 156.282,68.516 156.082,68.684 C155.89,68.852 155.63,68.936 155.302,68.936 C155.142,68.936 154.966,68.912 154.774,68.864 C154.79,68.672 154.798,68.484 154.798,68.3 C154.798,67.876 154.61,67.532 154.234,67.268 C153.858,67.004 153.37,66.872 152.77,66.872 C152.178,66.872 151.694,67.04 151.318,67.376 C150.95,67.712 150.766,68.148 150.766,68.684 L150.766,70.892 C150.766,71.428 150.958,71.868 151.342,72.212 C151.726,72.556 152.222,72.728 152.83,72.728 C153.422,72.728 153.902,72.592 154.27,72.32 C154.646,72.04 154.834,71.68 154.834,71.24 L154.834,70.868 L153.802,70.868 C153.498,70.868 153.25,70.752 153.058,70.52 C152.866,70.28 152.77,69.972 152.77,69.596 L155.686,69.596 C155.91,69.596 156.09,69.664 156.226,69.8 C156.362,69.936 156.43,70.116 156.43,70.34 L156.43,71.276 C156.43,71.828 156.278,72.32 155.974,72.752 C155.67,73.176 155.242,73.508 154.69,73.748 C154.146,73.988 153.526,74.108 152.83,74.108 Z M159.924,74.108 C159.428,74.108 158.976,74.012 158.568,73.82 C158.16,73.62 157.836,73.352 157.596,73.016 C157.356,72.672 157.236,72.288 157.236,71.864 L157.236,70.268 C157.236,69.82 157.36,69.416 157.608,69.056 C157.856,68.696 158.184,68.412 158.592,68.204 C159.008,67.996 159.456,67.892 159.936,67.892 C160.408,67.892 160.84,67.992 161.232,68.192 C161.632,68.384 161.948,68.656 162.18,69.008 C162.412,69.352 162.528,69.748 162.528,70.196 L162.528,70.868 C162.528,71.044 162.46,71.192 162.324,71.312 C162.196,71.432 162.032,71.492 161.832,71.492 L158.688,71.492 L158.688,71.756 C158.688,72.1 158.792,72.38 159,72.596 C159.208,72.812 159.52,72.92 159.936,72.92 C160.336,72.92 160.632,72.832 160.824,72.656 C161.024,72.48 161.124,72.252 161.124,71.972 C161.268,71.956 161.368,71.948 161.424,71.948 C161.72,71.948 161.952,72.016 162.12,72.152 C162.288,72.28 162.372,72.464 162.372,72.704 C162.372,72.936 162.264,73.16 162.048,73.376 C161.832,73.592 161.536,73.768 161.16,73.904 C160.784,74.04 160.372,74.108 159.924,74.108 Z M161.172,70.424 L161.172,70.196 C161.172,69.86 161.056,69.588 160.824,69.38 C160.592,69.172 160.292,69.068 159.924,69.068 C159.556,69.068 159.256,69.172 159.024,69.38 C158.8,69.58 158.688,69.852 158.688,70.196 L158.688,70.424 L161.172,70.424 Z M166.14,74.108 C165.492,74.108 165.012,73.92 164.7,73.544 C164.388,73.168 164.232,72.684 164.232,72.092 L164.232,69.116 L162.996,69.116 C162.996,68.74 163.068,68.46 163.212,68.276 C163.356,68.092 163.548,68 163.788,68 L164.256,68 L164.256,67.004 C164.256,66.676 164.376,66.444 164.616,66.308 C164.856,66.164 165.22,66.092 165.708,66.092 L165.708,68 L167.304,68 C167.304,68.4 167.228,68.688 167.076,68.864 C166.924,69.032 166.68,69.116 166.344,69.116 L165.732,69.116 L165.732,72.032 C165.732,72.312 165.784,72.512 165.888,72.632 C166,72.752 166.188,72.812 166.452,72.812 C166.732,72.812 167.012,72.736 167.292,72.584 C167.372,72.656 167.436,72.748 167.484,72.86 C167.532,72.964 167.556,73.072 167.556,73.184 C167.556,73.424 167.432,73.64 167.184,73.832 C166.936,74.016 166.588,74.108 166.14,74.108 Z M174.36,74.108 C173.84,74.108 173.38,74.016 172.98,73.832 C172.58,73.64 172.268,73.376 172.044,73.04 C171.82,72.704 171.708,72.324 171.708,71.9 L171.708,70.22 C171.708,69.764 171.82,69.36 172.044,69.008 C172.268,68.656 172.58,68.384 172.98,68.192 C173.38,67.992 173.836,67.892 174.348,67.892 C174.828,67.892 175.252,67.96 175.62,68.096 C175.996,68.232 176.288,68.424 176.496,68.672 C176.704,68.912 176.808,69.192 176.808,69.512 C176.808,69.76 176.712,69.96 176.52,70.112 C176.328,70.264 176.076,70.34 175.764,70.34 C175.676,70.34 175.612,70.336 175.572,70.328 C175.572,69.984 175.46,69.708 175.236,69.5 C175.02,69.292 174.736,69.188 174.384,69.188 C174.032,69.188 173.744,69.288 173.52,69.488 C173.304,69.688 173.196,69.952 173.196,70.28 L173.196,71.792 C173.196,72.096 173.308,72.344 173.532,72.536 C173.756,72.72 174.044,72.812 174.396,72.812 C174.748,72.812 175.036,72.708 175.26,72.5 C175.484,72.284 175.596,72.012 175.596,71.684 C175.644,71.676 175.712,71.672 175.8,71.672 C176.112,71.672 176.364,71.744 176.556,71.888 C176.748,72.032 176.844,72.228 176.844,72.476 C176.844,72.796 176.736,73.08 176.52,73.328 C176.312,73.568 176.02,73.76 175.644,73.904 C175.268,74.04 174.84,74.108 174.36,74.108 Z M180.195,74.108 C179.675,74.108 179.203,74.016 178.779,73.832 C178.363,73.64 178.035,73.376 177.795,73.04 C177.555,72.704 177.435,72.324 177.435,71.9 L177.435,70.208 C177.435,69.776 177.551,69.384 177.783,69.032 C178.023,68.68 178.351,68.404 178.767,68.204 C179.183,67.996 179.659,67.892 180.195,67.892 C180.731,67.892 181.207,67.996 181.623,68.204 C182.047,68.404 182.375,68.68 182.607,69.032 C182.847,69.384 182.967,69.776 182.967,70.208 L182.967,71.9 C182.967,72.324 182.843,72.704 182.595,73.04 C182.355,73.376 182.023,73.64 181.599,73.832 C181.183,74.016 180.715,74.108 180.195,74.108 Z M180.195,72.824 C180.595,72.824 180.907,72.732 181.131,72.548 C181.363,72.364 181.479,72.116 181.479,71.804 L181.479,70.28 C181.479,69.952 181.363,69.688 181.131,69.488 C180.907,69.28 180.595,69.176 180.195,69.176 C179.803,69.176 179.491,69.28 179.259,69.488 C179.027,69.688 178.911,69.952 178.911,70.28 L178.911,71.804 C178.911,72.116 179.027,72.364 179.259,72.548 C179.491,72.732 179.803,72.824 180.195,72.824 Z M183.909,69.044 C183.909,68.676 184.025,68.392 184.257,68.192 C184.497,67.992 184.857,67.892 185.337,67.892 L185.337,68.612 C185.241,68.724 185.145,68.852 185.049,68.996 L185.121,69.044 C185.361,68.684 185.669,68.404 186.045,68.204 C186.421,67.996 186.837,67.892 187.293,67.892 C187.701,67.892 188.061,67.984 188.373,68.168 C188.685,68.352 188.925,68.604 189.093,68.924 C189.269,69.244 189.357,69.604 189.357,70.004 L189.357,73.196 C189.357,73.516 189.233,73.748 188.985,73.892 C188.737,74.036 188.361,74.108 187.857,74.108 L187.857,70.22 C187.857,69.916 187.765,69.668 187.581,69.476 C187.405,69.284 187.145,69.188 186.801,69.188 C186.393,69.188 186.057,69.316 185.793,69.572 C185.529,69.82 185.397,70.132 185.397,70.508 L185.397,73.196 C185.397,73.516 185.277,73.748 185.037,73.892 C184.797,74.036 184.421,74.108 183.909,74.108 L183.909,69.044 Z M193.328,74.108 C192.68,74.108 192.2,73.92 191.888,73.544 C191.576,73.168 191.42,72.684 191.42,72.092 L191.42,69.116 L190.184,69.116 C190.184,68.74 190.256,68.46 190.4,68.276 C190.544,68.092 190.736,68 190.976,68 L191.444,68 L191.444,67.004 C191.444,66.676 191.564,66.444 191.804,66.308 C192.044,66.164 192.408,66.092 192.896,66.092 L192.896,68 L194.492,68 C194.492,68.4 194.416,68.688 194.264,68.864 C194.112,69.032 193.868,69.116 193.532,69.116 L192.92,69.116 L192.92,72.032 C192.92,72.312 192.972,72.512 193.076,72.632 C193.188,72.752 193.376,72.812 193.64,72.812 C193.92,72.812 194.2,72.736 194.48,72.584 C194.56,72.656 194.624,72.748 194.672,72.86 C194.72,72.964 194.744,73.072 194.744,73.184 C194.744,73.424 194.62,73.64 194.372,73.832 C194.124,74.016 193.776,74.108 193.328,74.108 Z M197.503,74.108 C197.095,74.108 196.719,74.028 196.375,73.868 C196.039,73.708 195.767,73.48 195.559,73.184 C195.359,72.88 195.259,72.52 195.259,72.104 C195.259,71.688 195.367,71.328 195.583,71.024 C195.799,70.712 196.091,70.476 196.459,70.316 C196.835,70.148 197.247,70.064 197.695,70.064 C198.063,70.064 198.391,70.124 198.679,70.244 C198.975,70.356 199.247,70.528 199.495,70.76 L199.555,70.7 C199.483,70.628 199.359,70.52 199.183,70.376 L199.183,70.136 C199.183,69.808 199.067,69.548 198.835,69.356 C198.603,69.164 198.279,69.068 197.863,69.068 C197.119,69.068 196.571,69.34 196.219,69.884 C196.043,69.828 195.895,69.74 195.775,69.62 C195.655,69.492 195.595,69.356 195.595,69.212 C195.595,68.972 195.703,68.752 195.919,68.552 C196.135,68.352 196.427,68.192 196.795,68.072 C197.163,67.952 197.563,67.892 197.995,67.892 C198.843,67.892 199.499,68.092 199.963,68.492 C200.427,68.884 200.659,69.42 200.659,70.1 L200.659,73.1 C200.659,73.452 200.547,73.708 200.323,73.868 C200.099,74.028 199.747,74.108 199.267,74.108 L199.267,73.616 C199.403,73.48 199.495,73.38 199.543,73.316 L199.495,73.256 C199.231,73.536 198.947,73.748 198.643,73.892 C198.347,74.036 197.967,74.108 197.503,74.108 Z M197.887,73.016 C198.303,73.016 198.627,72.936 198.859,72.776 C199.091,72.616 199.207,72.388 199.207,72.092 C199.207,71.804 199.087,71.576 198.847,71.408 C198.615,71.24 198.299,71.156 197.899,71.156 C197.531,71.156 197.239,71.24 197.023,71.408 C196.815,71.568 196.711,71.796 196.711,72.092 C196.711,72.396 196.815,72.628 197.023,72.788 C197.231,72.94 197.519,73.016 197.887,73.016 Z M204.407,74.108 C203.887,74.108 203.427,74.016 203.027,73.832 C202.627,73.64 202.315,73.376 202.091,73.04 C201.867,72.704 201.755,72.324 201.755,71.9 L201.755,70.22 C201.755,69.764 201.867,69.36 202.091,69.008 C202.315,68.656 202.627,68.384 203.027,68.192 C203.427,67.992 203.883,67.892 204.395,67.892 C204.875,67.892 205.299,67.96 205.667,68.096 C206.043,68.232 206.335,68.424 206.543,68.672 C206.751,68.912 206.855,69.192 206.855,69.512 C206.855,69.76 206.759,69.96 206.567,70.112 C206.375,70.264 206.123,70.34 205.811,70.34 C205.723,70.34 205.659,70.336 205.619,70.328 C205.619,69.984 205.507,69.708 205.283,69.5 C205.067,69.292 204.783,69.188 204.431,69.188 C204.079,69.188 203.791,69.288 203.567,69.488 C203.351,69.688 203.243,69.952 203.243,70.28 L203.243,71.792 C203.243,72.096 203.355,72.344 203.579,72.536 C203.803,72.72 204.091,72.812 204.443,72.812 C204.795,72.812 205.083,72.708 205.307,72.5 C205.531,72.284 205.643,72.012 205.643,71.684 C205.691,71.676 205.759,71.672 205.847,71.672 C206.159,71.672 206.411,71.744 206.603,71.888 C206.795,72.032 206.891,72.228 206.891,72.476 C206.891,72.796 206.783,73.08 206.567,73.328 C206.359,73.568 206.067,73.76 205.691,73.904 C205.315,74.04 204.887,74.108 204.407,74.108 Z M210.496,74.108 C209.848,74.108 209.368,73.92 209.056,73.544 C208.744,73.168 208.588,72.684 208.588,72.092 L208.588,69.116 L207.352,69.116 C207.352,68.74 207.424,68.46 207.568,68.276 C207.712,68.092 207.904,68 208.144,68 L208.612,68 L208.612,67.004 C208.612,66.676 208.732,66.444 208.972,66.308 C209.212,66.164 209.576,66.092 210.064,66.092 L210.064,68 L211.66,68 C211.66,68.4 211.584,68.688 211.432,68.864 C211.28,69.032 211.036,69.116 210.7,69.116 L210.088,69.116 L210.088,72.032 C210.088,72.312 210.14,72.512 210.244,72.632 C210.356,72.752 210.544,72.812 210.808,72.812 C211.088,72.812 211.368,72.736 211.648,72.584 C211.728,72.656 211.792,72.748 211.84,72.86 C211.888,72.964 211.912,73.072 211.912,73.184 C211.912,73.424 211.788,73.64 211.54,73.832 C211.292,74.016 210.944,74.108 210.496,74.108 Z M151.173,82.764 C151.173,82.372 151.305,82.064 151.569,81.84 C151.833,81.608 152.189,81.492 152.637,81.492 L156.693,87.828 L156.813,87.732 L156.321,86.916 L156.321,81.492 C156.841,81.492 157.233,81.592 157.497,81.792 C157.769,81.992 157.905,82.288 157.905,82.68 L157.905,89.016 C157.905,89.312 157.777,89.568 157.521,89.784 C157.273,90 156.985,90.108 156.657,90.108 L152.385,83.424 L152.265,83.532 L152.757,84.348 L152.757,88.92 C152.757,89.312 152.621,89.608 152.349,89.808 C152.085,90.008 151.693,90.108 151.173,90.108 L151.173,82.764 Z M161.922,90.108 C161.426,90.108 160.974,90.012 160.566,89.82 C160.158,89.62 159.834,89.352 159.594,89.016 C159.354,88.672 159.234,88.288 159.234,87.864 L159.234,86.268 C159.234,85.82 159.358,85.416 159.606,85.056 C159.854,84.696 160.182,84.412 160.59,84.204 C161.006,83.996 161.454,83.892 161.934,83.892 C162.406,83.892 162.838,83.992 163.23,84.192 C163.63,84.384 163.946,84.656 164.178,85.008 C164.41,85.352 164.526,85.748 164.526,86.196 L164.526,86.868 C164.526,87.044 164.458,87.192 164.322,87.312 C164.194,87.432 164.03,87.492 163.83,87.492 L160.686,87.492 L160.686,87.756 C160.686,88.1 160.79,88.38 160.998,88.596 C161.206,88.812 161.518,88.92 161.934,88.92 C162.334,88.92 162.63,88.832 162.822,88.656 C163.022,88.48 163.122,88.252 163.122,87.972 C163.266,87.956 163.366,87.948 163.422,87.948 C163.718,87.948 163.95,88.016 164.118,88.152 C164.286,88.28 164.37,88.464 164.37,88.704 C164.37,88.936 164.262,89.16 164.046,89.376 C163.83,89.592 163.534,89.768 163.158,89.904 C162.782,90.04 162.37,90.108 161.922,90.108 Z M163.17,86.424 L163.17,86.196 C163.17,85.86 163.054,85.588 162.822,85.38 C162.59,85.172 162.29,85.068 161.922,85.068 C161.554,85.068 161.254,85.172 161.022,85.38 C160.798,85.58 160.686,85.852 160.686,86.196 L160.686,86.424 L163.17,86.424 Z M167.686,90.108 C167.318,90.108 167.01,90.036 166.762,89.892 C166.514,89.74 166.35,89.524 166.27,89.244 L164.89,84.024 C164.954,83.984 165.05,83.952 165.178,83.928 C165.306,83.904 165.43,83.892 165.55,83.892 C165.79,83.892 165.99,83.948 166.15,84.06 C166.318,84.164 166.422,84.304 166.462,84.48 L167.17,87.708 L167.014,88.368 L167.086,88.392 L168.166,84.384 C168.214,84.24 168.298,84.124 168.418,84.036 C168.538,83.94 168.694,83.892 168.886,83.892 C169.086,83.892 169.25,83.94 169.378,84.036 C169.506,84.124 169.59,84.24 169.63,84.384 L170.494,87.792 L170.314,88.488 L170.386,88.512 L171.31,84.48 C171.35,84.304 171.454,84.164 171.622,84.06 C171.79,83.948 171.994,83.892 172.234,83.892 C172.362,83.892 172.486,83.904 172.606,83.928 C172.734,83.952 172.83,83.984 172.894,84.024 L171.514,89.244 C171.442,89.516 171.266,89.728 170.986,89.88 C170.706,90.032 170.378,90.108 170.002,90.108 L168.778,85.284 L168.718,85.308 L168.85,85.824 L167.686,90.108 Z M177.142,82.332 C177.142,82.132 177.218,81.96 177.37,81.816 C177.53,81.672 177.722,81.6 177.946,81.6 L183.382,81.6 C183.382,82.08 183.298,82.432 183.13,82.656 C182.97,82.872 182.706,82.98 182.338,82.98 L178.75,82.98 L178.75,85.008 L181.942,85.008 C181.942,85.488 181.858,85.84 181.69,86.064 C181.53,86.28 181.266,86.388 180.898,86.388 L178.75,86.388 L178.75,88.968 C178.75,89.368 178.622,89.66 178.366,89.844 C178.11,90.02 177.702,90.108 177.142,90.108 L177.142,82.332 Z M186.097,85.188 C185.625,85.188 185.241,85.316 184.945,85.572 C184.649,85.82 184.501,86.132 184.501,86.508 L184.501,89.196 C184.501,89.516 184.381,89.748 184.141,89.892 C183.901,90.036 183.525,90.108 183.013,90.108 L183.013,85.044 C183.013,84.676 183.129,84.392 183.361,84.192 C183.601,83.992 183.961,83.892 184.441,83.892 L184.441,84.6 C184.321,84.736 184.225,84.868 184.153,84.996 L184.225,85.044 C184.729,84.276 185.361,83.892 186.121,83.892 C186.465,83.892 186.725,83.984 186.901,84.168 C187.077,84.344 187.165,84.568 187.165,84.84 C187.165,85.048 187.109,85.224 186.997,85.368 C186.781,85.248 186.481,85.188 186.097,85.188 Z M188.884,83.328 C188.596,83.328 188.356,83.244 188.164,83.076 C187.98,82.9 187.888,82.676 187.888,82.404 C187.888,82.14 187.98,81.924 188.164,81.756 C188.356,81.58 188.596,81.492 188.884,81.492 C189.172,81.492 189.408,81.58 189.592,81.756 C189.784,81.924 189.88,82.14 189.88,82.404 C189.88,82.676 189.784,82.9 189.592,83.076 C189.408,83.244 189.172,83.328 188.884,83.328 Z M188.128,84.804 C188.128,84.476 188.252,84.244 188.5,84.108 C188.748,83.964 189.124,83.892 189.628,83.892 L189.628,89.196 C189.628,89.516 189.504,89.748 189.256,89.892 C189.008,90.036 188.632,90.108 188.128,90.108 L188.128,84.804 Z M193.914,90.108 C193.418,90.108 192.966,90.012 192.558,89.82 C192.15,89.62 191.826,89.352 191.586,89.016 C191.346,88.672 191.226,88.288 191.226,87.864 L191.226,86.268 C191.226,85.82 191.35,85.416 191.598,85.056 C191.846,84.696 192.174,84.412 192.582,84.204 C192.998,83.996 193.446,83.892 193.926,83.892 C194.398,83.892 194.83,83.992 195.222,84.192 C195.622,84.384 195.938,84.656 196.17,85.008 C196.402,85.352 196.518,85.748 196.518,86.196 L196.518,86.868 C196.518,87.044 196.45,87.192 196.314,87.312 C196.186,87.432 196.022,87.492 195.822,87.492 L192.678,87.492 L192.678,87.756 C192.678,88.1 192.782,88.38 192.99,88.596 C193.198,88.812 193.51,88.92 193.926,88.92 C194.326,88.92 194.622,88.832 194.814,88.656 C195.014,88.48 195.114,88.252 195.114,87.972 C195.258,87.956 195.358,87.948 195.414,87.948 C195.71,87.948 195.942,88.016 196.11,88.152 C196.278,88.28 196.362,88.464 196.362,88.704 C196.362,88.936 196.254,89.16 196.038,89.376 C195.822,89.592 195.526,89.768 195.15,89.904 C194.774,90.04 194.362,90.108 193.914,90.108 Z M195.162,86.424 L195.162,86.196 C195.162,85.86 195.046,85.588 194.814,85.38 C194.582,85.172 194.282,85.068 193.914,85.068 C193.546,85.068 193.246,85.172 193.014,85.38 C192.79,85.58 192.678,85.852 192.678,86.196 L192.678,86.424 L195.162,86.424 Z M197.673,85.044 C197.673,84.676 197.789,84.392 198.021,84.192 C198.261,83.992 198.621,83.892 199.101,83.892 L199.101,84.612 C199.005,84.724 198.909,84.852 198.813,84.996 L198.885,85.044 C199.125,84.684 199.433,84.404 199.809,84.204 C200.185,83.996 200.601,83.892 201.057,83.892 C201.465,83.892 201.825,83.984 202.137,84.168 C202.449,84.352 202.689,84.604 202.857,84.924 C203.033,85.244 203.121,85.604 203.121,86.004 L203.121,89.196 C203.121,89.516 202.997,89.748 202.749,89.892 C202.501,90.036 202.125,90.108 201.621,90.108 L201.621,86.22 C201.621,85.916 201.529,85.668 201.345,85.476 C201.169,85.284 200.909,85.188 200.565,85.188 C200.157,85.188 199.821,85.316 199.557,85.572 C199.293,85.82 199.161,86.132 199.161,86.508 L199.161,89.196 C199.161,89.516 199.041,89.748 198.801,89.892 C198.561,90.036 198.185,90.108 197.673,90.108 L197.673,85.044 Z M206.666,90.108 C206.234,90.108 205.846,90.016 205.502,89.832 C205.158,89.648 204.886,89.396 204.686,89.076 C204.486,88.748 204.386,88.372 204.386,87.948 L204.386,86.052 C204.386,85.636 204.49,85.264 204.698,84.936 C204.906,84.608 205.194,84.352 205.562,84.168 C205.938,83.984 206.354,83.892 206.81,83.892 C207.106,83.892 207.41,83.956 207.722,84.084 C208.042,84.204 208.31,84.368 208.526,84.576 L208.574,84.516 C208.534,84.452 208.446,84.372 208.31,84.276 L208.31,82.5 C208.31,82.18 208.434,81.932 208.682,81.756 C208.938,81.58 209.322,81.492 209.834,81.492 L209.834,89.076 C209.834,89.372 209.722,89.62 209.498,89.82 C209.274,90.012 208.926,90.108 208.454,90.108 L208.454,89.448 C208.558,89.32 208.634,89.216 208.682,89.136 L208.622,89.088 C208.374,89.424 208.098,89.68 207.794,89.856 C207.498,90.024 207.122,90.108 206.666,90.108 Z M207.11,88.812 C207.47,88.812 207.762,88.728 207.986,88.56 C208.218,88.384 208.334,88.164 208.334,87.9 L208.334,86.088 C208.334,85.832 208.218,85.62 207.986,85.452 C207.762,85.276 207.466,85.188 207.098,85.188 C206.706,85.188 206.402,85.272 206.186,85.44 C205.978,85.6 205.874,85.832 205.874,86.136 L205.874,87.84 C205.874,88.16 205.978,88.404 206.186,88.572 C206.402,88.732 206.71,88.812 207.11,88.812 Z" id="Shape" fill="#000000"></path>
                <path d="M11.8994,98.974 C11.1794,98.974 10.5513,98.886 10.0153,98.71 C9.47935,98.534 9.06735,98.286 8.77935,97.966 C8.49935,97.638 8.35935,97.258 8.35935,96.826 C8.35935,96.17 8.80335,95.842 9.69135,95.842 C9.72335,96.45 9.92735,96.91 10.3033,97.222 C10.6873,97.534 11.2233,97.69 11.9113,97.69 C12.4793,97.69 12.9194,97.594 13.2314,97.402 C13.5434,97.202 13.6994,96.926 13.6994,96.574 C13.6994,96.342 13.6394,96.154 13.5193,96.01 C13.3994,95.858 13.1954,95.726 12.9073,95.614 C12.6194,95.494 12.1994,95.374 11.6474,95.254 C10.8633,95.07 10.2433,94.866 9.78735,94.642 C9.33935,94.418 9.01535,94.15 8.81535,93.838 C8.61535,93.518 8.51535,93.122 8.51535,92.65 C8.51535,92.194 8.64735,91.794 8.91135,91.45 C9.18335,91.106 9.56335,90.838 10.0513,90.646 C10.5473,90.454 11.1154,90.358 11.7554,90.358 C12.3714,90.358 12.9194,90.442 13.3994,90.61 C13.8874,90.77 14.2674,90.998 14.5394,91.294 C14.8194,91.59 14.9594,91.93 14.9594,92.314 C14.9594,92.906 14.5314,93.214 13.6754,93.238 C13.6273,92.686 13.4513,92.282 13.1474,92.026 C12.8433,91.77 12.3793,91.642 11.7554,91.642 C11.2194,91.642 10.8074,91.73 10.5193,91.906 C10.2313,92.082 10.0873,92.33 10.0873,92.65 C10.0873,92.874 10.1433,93.062 10.2553,93.214 C10.3673,93.358 10.5553,93.486 10.8194,93.598 C11.0833,93.702 11.4593,93.81 11.9474,93.922 C12.7714,94.106 13.4234,94.314 13.9034,94.546 C14.3834,94.77 14.7314,95.046 14.9473,95.374 C15.1633,95.694 15.2713,96.09 15.2713,96.562 C15.2713,97.05 15.1314,97.478 14.8514,97.846 C14.5793,98.206 14.1873,98.486 13.6754,98.686 C13.1714,98.878 12.5794,98.974 11.8994,98.974 Z M24.4195,98.974 C24.0115,98.974 23.6355,98.894 23.2915,98.734 C22.9555,98.574 22.6835,98.346 22.4755,98.05 C22.2755,97.746 22.1755,97.386 22.1755,96.97 C22.1755,96.554 22.2835,96.194 22.4995,95.89 C22.7155,95.578 23.0075,95.342 23.3755,95.182 C23.7515,95.014 24.1635,94.93 24.6115,94.93 C24.9795,94.93 25.3075,94.99 25.5955,95.11 C25.8915,95.222 26.1635,95.394 26.4115,95.626 L26.4715,95.566 C26.3995,95.494 26.2755,95.386 26.0995,95.242 L26.0995,95.002 C26.0995,94.674 25.9835,94.414 25.7515,94.222 C25.5195,94.03 25.1955,93.934 24.7795,93.934 C24.0355,93.934 23.4875,94.206 23.1355,94.75 C22.9595,94.694 22.8115,94.606 22.6915,94.486 C22.5715,94.358 22.5115,94.222 22.5115,94.078 C22.5115,93.838 22.6195,93.618 22.8355,93.418 C23.0515,93.218 23.3435,93.058 23.7115,92.938 C24.0795,92.818 24.4795,92.758 24.9115,92.758 C25.7595,92.758 26.4155,92.958 26.8795,93.358 C27.3435,93.75 27.5755,94.286 27.5755,94.966 L27.5755,97.966 C27.5755,98.318 27.4635,98.574 27.2395,98.734 C27.0155,98.894 26.6635,98.974 26.1835,98.974 L26.1835,98.482 C26.3195,98.346 26.4115,98.246 26.4595,98.182 L26.4115,98.122 C26.1475,98.402 25.8635,98.614 25.5595,98.758 C25.2635,98.902 24.8835,98.974 24.4195,98.974 Z M24.8035,97.882 C25.2195,97.882 25.5435,97.802 25.7755,97.642 C26.0075,97.482 26.1235,97.254 26.1235,96.958 C26.1235,96.67 26.0035,96.442 25.7635,96.274 C25.5315,96.106 25.2155,96.022 24.8155,96.022 C24.4475,96.022 24.1555,96.106 23.9395,96.274 C23.7315,96.434 23.6275,96.662 23.6275,96.958 C23.6275,97.262 23.7315,97.494 23.9395,97.654 C24.1475,97.806 24.4355,97.882 24.8035,97.882 Z M18.652,98.974 C18.132,98.974 17.672,98.882 17.272,98.698 C16.872,98.506 16.56,98.242 16.336,97.906 C16.112,97.57 16,97.19 16,96.766 L16,95.086 C16,94.63 16.112,94.226 16.336,93.874 C16.56,93.522 16.872,93.25 17.272,93.058 C17.672,92.858 18.128,92.758 18.64,92.758 C19.12,92.758 19.544,92.826 19.912,92.962 C20.288,93.098 20.58,93.29 20.788,93.538 C20.996,93.778 21.1,94.058 21.1,94.378 C21.1,94.626 21.004,94.826 20.812,94.978 C20.62,95.13 20.368,95.206 20.056,95.206 C19.968,95.206 19.904,95.202 19.864,95.194 C19.864,94.85 19.752,94.574 19.528,94.366 C19.312,94.158 19.028,94.054 18.676,94.054 C18.324,94.054 18.036,94.154 17.812,94.354 C17.596,94.554 17.488,94.818 17.488,95.146 L17.488,96.658 C17.488,96.962 17.6,97.21 17.824,97.402 C18.048,97.586 18.336,97.678 18.688,97.678 C19.04,97.678 19.328,97.574 19.552,97.366 C19.776,97.15 19.888,96.878 19.888,96.55 C19.936,96.542 20.004,96.538 20.092,96.538 C20.404,96.538 20.656,96.61 20.848,96.754 C21.04,96.898 21.136,97.094 21.136,97.342 C21.136,97.662 21.028,97.946 20.812,98.194 C20.604,98.434 20.312,98.626 19.936,98.77 C19.56,98.906 19.132,98.974 18.652,98.974 Z M28.9548,93.91 C28.9548,93.542 29.0708,93.258 29.3028,93.058 C29.5428,92.858 29.9028,92.758 30.3828,92.758 L30.3828,93.478 C30.2868,93.59 30.1908,93.718 30.0948,93.862 L30.1668,93.91 C30.4068,93.55 30.7148,93.27 31.0908,93.07 C31.4668,92.862 31.8828,92.758 32.3388,92.758 C32.7468,92.758 33.1068,92.85 33.4188,93.034 C33.7308,93.218 33.9708,93.47 34.1388,93.79 C34.3148,94.11 34.4028,94.47 34.4028,94.87 L34.4028,98.062 C34.4028,98.382 34.2788,98.614 34.0308,98.758 C33.7828,98.902 33.4068,98.974 32.9028,98.974 L32.9028,95.086 C32.9028,94.782 32.8108,94.534 32.6268,94.342 C32.4508,94.15 32.1908,94.054 31.8468,94.054 C31.4388,94.054 31.1028,94.182 30.8388,94.438 C30.5748,94.686 30.4428,94.998 30.4428,95.374 L30.4428,98.062 C30.4428,98.382 30.3228,98.614 30.0828,98.758 C29.8428,98.902 29.4668,98.974 28.9548,98.974 L28.9548,93.91 Z M45.1457,99.226 C44.8897,99.226 44.6537,99.166 44.4377,99.046 C44.2297,98.926 44.0577,98.762 43.9217,98.554 C43.3857,98.834 42.7937,98.974 42.1457,98.974 C41.4897,98.974 40.8897,98.846 40.3457,98.59 C39.8017,98.326 39.3697,97.97 39.0497,97.522 C38.7377,97.074 38.5817,96.586 38.5817,96.058 L38.5817,93.262 C38.5817,92.734 38.7377,92.25 39.0497,91.81 C39.3697,91.362 39.8017,91.01 40.3457,90.754 C40.8897,90.49 41.4897,90.358 42.1457,90.358 C42.8017,90.358 43.4017,90.49 43.9457,90.754 C44.4977,91.01 44.9297,91.362 45.2417,91.81 C45.5617,92.25 45.7217,92.734 45.7217,93.262 L45.7217,96.058 C45.7217,96.394 45.6577,96.714 45.5297,97.018 C45.4097,97.322 45.2257,97.594 44.9777,97.834 C45.0897,97.978 45.2377,98.09 45.4217,98.17 C45.6137,98.25 45.8097,98.282 46.0097,98.266 C46.0097,98.602 45.9417,98.846 45.8057,98.998 C45.6697,99.15 45.4497,99.226 45.1457,99.226 Z M43.9697,96.574 C44.0737,96.438 44.1257,96.262 44.1257,96.046 L44.1257,93.298 C44.1257,92.834 43.9457,92.462 43.5857,92.182 C43.2257,91.894 42.7457,91.75 42.1457,91.75 C41.5537,91.75 41.0777,91.894 40.7177,92.182 C40.3577,92.462 40.1777,92.834 40.1777,93.298 L40.1777,95.362 C40.4737,95.282 40.7337,95.242 40.9577,95.242 C41.5977,95.242 42.1497,95.338 42.6137,95.53 C43.0857,95.722 43.5377,96.07 43.9697,96.574 Z M42.1457,97.594 C42.4657,97.594 42.7857,97.538 43.1057,97.426 C42.7857,97.01 42.4577,96.734 42.1217,96.598 C41.7937,96.462 41.3737,96.394 40.8617,96.394 C40.7017,96.394 40.5017,96.426 40.2617,96.49 C40.3817,96.818 40.6057,97.086 40.9337,97.294 C41.2697,97.494 41.6737,97.594 42.1457,97.594 Z M47.1775,91.198 C47.1775,90.99 47.2535,90.818 47.4055,90.682 C47.5575,90.538 47.7495,90.466 47.9815,90.466 L51.1855,90.466 C52.0495,90.466 52.7175,90.694 53.1895,91.15 C53.6695,91.606 53.9095,92.246 53.9095,93.07 C53.9095,93.542 53.8135,93.942 53.6215,94.27 C53.4295,94.59 53.1375,94.846 52.7455,95.038 L52.7455,95.074 C53.4495,95.386 53.8015,95.978 53.8015,96.85 L53.8015,97.786 C53.8015,98.17 53.6655,98.466 53.3935,98.674 C53.1215,98.874 52.7215,98.974 52.1935,98.974 L52.1935,96.922 C52.1935,96.498 52.1095,96.186 51.9415,95.986 C51.7735,95.786 51.5175,95.686 51.1735,95.686 L48.7615,95.686 L48.7615,97.786 C48.7615,98.178 48.6255,98.474 48.3535,98.674 C48.0895,98.874 47.6975,98.974 47.1775,98.974 L47.1775,91.198 Z M51.1015,94.318 C51.4855,94.318 51.7815,94.21 51.9895,93.994 C52.1975,93.77 52.3015,93.458 52.3015,93.058 C52.3015,92.242 51.9015,91.834 51.1015,91.834 L48.7615,91.834 L48.7615,94.318 L51.1015,94.318 Z" id="Shape" fill="#000000"></path>
                <path d="M0,48.182 L25.6823,48.182 L25.6823,22.6316 L0,22.6316 L0,48.182 Z M8.56077,31.1484 L17.1215,31.1484 L17.1215,39.6652 L8.56077,39.6652 L8.56077,31.1484 Z M34.2431,22.6316 L34.2431,48.182 L59.9254,48.182 L59.9254,22.6316 L34.2431,22.6316 Z M51.3646,39.6652 L42.8038,39.6652 L42.8038,31.1484 L51.3646,31.1484 L51.3646,39.6652 Z M0,82.2491 L25.6823,82.2491 L25.6823,56.6988 L0,56.6988 L0,82.2491 Z M8.56077,65.2155 L17.1215,65.2155 L17.1215,73.7323 L8.56077,73.7323 L8.56077,65.2155 Z M55.645,56.6988 L59.9254,56.6988 L59.9254,73.7323 L47.0842,73.7323 L47.0842,69.4739 L42.8038,69.4739 L42.8038,82.2491 L34.2431,82.2491 L34.2431,56.6988 L47.0842,56.6988 L47.0842,60.9571 L55.645,60.9571 L55.645,56.6988 Z M55.645,77.9907 L59.9254,77.9907 L59.9254,82.2491 L55.645,82.2491 L55.645,77.9907 Z M47.0842,77.9907 L51.3646,77.9907 L51.3646,82.2491 L47.0842,82.2491 L47.0842,77.9907 Z" id="Shape" fill="#000000"></path>
                <rect id="Rectangle" fill="#FFFFFF" transform="translate(60.081898, 42.735194) rotate(-31.742700) translate(-60.081898, -42.735194) " x="37.7426981" y="7.13984359" width="44.6784" height="71.1907" rx="11"></rect>
                <path d="M33.8474,25.7993 L56.6195,11.6172 C58.3759,10.5234 60.6894,11.0611 61.7833,12.8175 L88.1214,55.1086 C89.2153,56.865 88.6775,59.1785 86.9211,60.2723 L76.7195,66.6257 C78.5533,64.7481 78.9414,61.8001 77.4912,59.4714 C76.0409,57.1428 73.224,56.1909 70.7301,57.0085 L79.7117,51.4148 C81.3203,50.413 81.8141,48.2887 80.8123,46.6802 L61.0587,14.9619 C60.0569,13.3533 57.9326,12.8595 56.324,13.8613 L35.9918,26.5239 C34.3832,27.5257 33.8894,29.65 34.8912,31.2586 L54.6448,62.9768 C55.6466,64.5854 57.7709,65.0792 59.3795,64.0774 L68.3611,58.4838 C66.5274,60.3614 66.1392,63.3094 67.5895,65.638 C69.0397,67.9667 71.8567,68.9186 74.3506,68.101 L64.149,74.4544 C62.3926,75.5483 60.0791,75.0105 58.9852,73.2541 L32.6471,30.9631 C31.5532,29.2067 32.091,26.8932 33.8474,25.7993 Z" id="Path" stroke="#000000" stroke-width="4" fill="#000000"></path>
                <path d="M130.341,50.7055 L122.506,19.9653 C121.82,17.2744 118.243,16.3084 116.619,18.4389 L110.33,26.6909 C92.1363,13.1239 75.2952,5.5342 63.3351,21.2259 C58.5078,27.5594 58.173,37.2235 60.5888,44.2509 C61.3426,46.4439 64.5083,46.8255 65.2074,44.735 C71.5057,25.9035 82.042,27.6603 99.6429,40.7118 L92.7356,49.7742 C91.1093,51.908 92.9949,55.0976 95.7679,55.0455 L127.487,54.4503 C129.482,54.4128 130.834,52.642 130.341,50.7055 L130.341,50.7055 Z" id="Path" fill="#000000"></path>
            </g>
        </g>
    </g>
</svg>