<svg width="390" height="480" viewBox="0 0 390 480" fill="none" xmlns="http://www.w3.org/2000/svg">
<path d="M194.856 14.25C195.606 18.656 209.946 102.844 209.946 135C209.946 184.031 183.89 219 145.369 233.063L157.46 456.28C158.116 469.13 147.9 480 134.965 480H74.981C62.14 480 51.83 469.22 52.487 456.28L64.577 233.063C25.962 219 0 183.938 0 135C0 102.75 14.34 18.656 15.09 14.25C18.089 -4.78101 57.548 -5.06201 59.985 15.281V147.656C61.203 150.844 74.137 150.656 74.981 147.656C76.293 123.938 82.385 17.156 82.479 14.719C85.572 -4.78102 124.374 -4.78102 127.374 14.719C127.561 17.25 133.56 123.938 134.872 147.656C135.715 150.656 148.743 150.844 149.868 147.656V15.281C152.305 -4.96901 191.857 -4.78101 194.856 14.25ZM306.578 282.094L292.519 455.63C291.394 468.75 301.798 480 314.92 480H367.41C379.87 480 389.9 469.97 389.9 457.5V22.5C389.9 10.125 379.87 -1.17935e-05 367.41 -1.17935e-05C290.082 -1.17935e-05 159.897 167.344 306.578 282.094Z" fill="#C6C6C6"/>
</svg>
