<svg width="600" height="420" viewBox="0 0 600 420" fill="none" xmlns="http://www.w3.org/2000/svg">
<path d="M89.9299 180C123 180 149.89 153.094 149.89 120C149.89 86.906 123 60 89.9299 60C56.8599 60 29.98 86.906 29.98 120C29.98 153.094 56.8599 180 89.9299 180ZM509.62 180C542.69 180 569.58 153.094 569.58 120C569.58 86.906 542.69 60 509.62 60C476.55 60 449.67 86.906 449.67 120C449.67 153.094 476.55 180 509.62 180ZM539.6 210H479.64C463.16 210 448.26 216.656 437.39 227.438C475.15 248.156 501.94 285.562 507.75 330H569.58C586.16 330 599.55 316.594 599.55 300V270C599.55 236.906 572.67 210 539.6 210ZM299.78 210C357.77 210 404.7 163.031 404.7 105C404.7 46.969 357.77 0 299.78 0C241.79 0 194.86 46.969 194.86 105C194.86 163.031 241.79 210 299.78 210ZM371.72 240H363.95C344.46 249.375 322.82 255 299.78 255C276.73 255 255.19 249.375 235.61 240H227.83C168.25 240 119.91 288.375 119.91 348V375C119.91 399.84 140.05 420 164.88 420H434.68C459.5 420 479.64 399.84 479.64 375V348C479.64 288.375 431.3 240 371.72 240ZM162.16 227.438C151.29 216.656 136.4 210 119.91 210H59.96C26.89 210 0 236.906 0 270V300C0 316.594 13.4 330 29.98 330H91.71C97.61 285.562 124.41 248.156 162.16 227.438Z" fill="#C6C6C6"/>
</svg>
