<svg width="421" height="480" viewBox="0 0 421 480" fill="none" xmlns="http://www.w3.org/2000/svg">
<path d="M138.85 270H101.32C95.1301 270 90.0601 264.938 90.0601 258.75V221.25C90.0601 215.062 95.1301 210 101.32 210H138.85C145.04 210 150.11 215.062 150.11 221.25V258.75C150.11 264.938 145.04 270 138.85 270ZM240.17 258.75V221.25C240.17 215.062 235.1 210 228.91 210H191.38C185.19 210 180.13 215.062 180.13 221.25V258.75C180.13 264.938 185.19 270 191.38 270H228.91C235.1 270 240.17 264.938 240.17 258.75ZM330.23 258.75V221.25C330.23 215.062 325.17 210 318.97 210H281.45C275.26 210 270.19 215.062 270.19 221.25V258.75C270.19 264.938 275.26 270 281.45 270H318.97C325.17 270 330.23 264.938 330.23 258.75ZM240.17 348.75V311.25C240.17 305.062 235.1 300 228.91 300H191.38C185.19 300 180.13 305.062 180.13 311.25V348.75C180.13 354.938 185.19 360 191.38 360H228.91C235.1 360 240.17 354.938 240.17 348.75ZM150.11 348.75V311.25C150.11 305.062 145.04 300 138.85 300H101.32C95.1301 300 90.0601 305.062 90.0601 311.25V348.75C90.0601 354.938 95.1301 360 101.32 360H138.85C145.04 360 150.11 354.938 150.11 348.75ZM330.23 348.75V311.25C330.23 305.062 325.17 300 318.97 300H281.45C275.26 300 270.19 305.062 270.19 311.25V348.75C270.19 354.938 275.26 360 281.45 360H318.97C325.17 360 330.23 354.938 330.23 348.75ZM420.29 105V435C420.29 459.84 400.12 480 375.26 480H45.03C20.17 480 0 459.84 0 435V105C0 80.156 20.17 60 45.03 60H90.0601V11.25C90.0601 5.062 95.1301 0 101.32 0H138.85C145.04 0 150.11 5.062 150.11 11.25V60H270.19V11.25C270.19 5.062 275.26 0 281.45 0H318.97C325.17 0 330.23 5.062 330.23 11.25V60H375.26C400.12 60 420.29 80.156 420.29 105ZM375.26 429.38V150H45.03V429.38C45.03 432.47 47.5599 435 50.6599 435H369.63C372.73 435 375.26 432.47 375.26 429.38Z" fill="#C6C6C6"/>
</svg>
